<svg width="51" height="9" viewBox="0 0 51 9" fill="none" xmlns="http://www.w3.org/2000/svg">
<path d="M5.47624 7.34775V6.19114H48.395C49.6437 6.19114 50.0371 5.79643 50.0371 4.99323V0.605469H48.1434V4.40575L48.0062 4.80964H45.4036V3.60255C45.4036 2.90491 44.8912 2.56068 43.8712 2.5515H40.9026V3.90547H43.5236C43.7111 3.90547 43.8575 4.05234 43.8575 4.24511V4.80964H33.6984V2.64789H31.8093V4.80964H21.0328V2.64789H19.1391V4.80964H5.47166C5.48081 4.57556 5.48081 2.70296 5.47166 2.64789H2.51681C2.0594 2.62035 1.67517 2.74427 1.39158 2.99671C1.10798 3.27209 0.966179 3.88252 0.957031 4.52967C0.966179 5.12174 1.10342 5.55318 1.37329 5.80561C1.64774 6.05804 1.99537 6.18196 2.42991 6.19114H3.92564V6.70978C3.92564 6.89796 3.77468 7.0127 3.58714 7.0127H0.96161V8.36667H3.93477C4.9548 8.38503 5.47624 8.0408 5.47624 7.34775ZM3.93477 5.1401H3.57801C3.27154 5.1401 3.04741 5.08961 2.91476 4.99323C2.79126 4.89226 2.73178 4.70867 2.73178 4.47459C2.73178 4.26806 2.7821 4.10742 2.87816 3.99726C2.97879 3.88711 3.15261 3.84121 3.40419 3.84121H3.93019V5.1401H3.93477Z" fill="white"/>
</svg>
