<svg width="20" height="20" viewBox="0 0 20 20" fill="none" xmlns="http://www.w3.org/2000/svg">
<path d="M0 18.517V18.0008C0.109785 17.5418 0.337039 17.1618 0.694936 16.8423C2.22423 15.4773 2.98834 13.7609 2.99822 11.7106C3.00261 10.7739 2.99163 9.8361 3.00151 8.89938C3.03115 6.01345 4.89529 3.39547 7.61356 2.43569C8.05928 2.27865 8.52257 2.17433 8.99794 2.03926C8.99794 1.78449 9.01331 1.51105 8.99465 1.23981C8.95403 0.622649 9.20104 0.202059 9.79498 0H10.2165C10.8171 0.217433 11.0509 0.658888 11.0026 1.27714C10.9927 1.40124 11.0147 1.52862 10.9971 1.65161C10.9806 1.77021 10.9576 1.90089 10.8939 1.99643C10.1496 3.10556 9.66763 4.31462 9.55126 5.64887C9.28997 8.65669 10.367 11.0979 12.757 12.9307C14.1029 13.9629 15.6542 14.4637 17.3536 14.4988C17.4448 14.501 17.5853 14.5472 17.6171 14.613C18.0563 15.5399 18.6897 16.3064 19.445 16.9916C19.9479 17.4474 20.1026 18.0426 19.9292 18.7025C19.7129 19.5251 19.0301 20.0038 18.0991 20.0049C12.7021 20.0049 7.30506 20.0049 1.90915 20.0049C1.83889 20.0049 1.76863 20.0049 1.69837 20.0005C0.909016 19.9511 0.289831 19.469 0.07136 18.7377C0.049403 18.6641 0.0241526 18.5905 0.00109785 18.517H0Z" fill="black"/>
</svg>
