<svg width="13" height="13" viewBox="0 0 13 13" fill="none" xmlns="http://www.w3.org/2000/svg">
<path d="M7.04309 0C7.53603 0.108717 8.04104 0.1779 8.5197 0.33164C11.3159 1.23322 13.1768 3.9709 12.9868 6.8733C12.7925 9.84708 10.6517 12.3069 7.75779 12.8791C4.14149 13.5951 0.654731 11.1484 0.0706771 7.48717C-0.50679 3.86767 2.14231 0.417296 5.78606 0.0417296C5.84644 0.0351407 5.90573 0.0142759 5.96611 0C6.3251 0 6.6852 0 7.04419 0H7.04309ZM6.00014 5.49513C6.00014 5.62361 6.00014 5.70927 6.00014 5.79382C6.00014 6.77008 5.99685 7.74523 6.00234 8.72148C6.00453 9.16733 6.32071 9.49458 6.7357 9.50226C7.13312 9.50995 7.48882 9.19039 7.49321 8.76541C7.50638 7.42237 7.50419 6.08044 7.49321 4.73741C7.48992 4.34207 7.21436 4.03569 6.83121 4.01153C6.35694 3.98298 5.87828 3.98078 5.40511 4.01263C5 4.04008 4.72774 4.39259 4.7464 4.78682C4.76506 5.17447 5.07685 5.47756 5.48086 5.49293C5.64224 5.49952 5.80472 5.49293 5.99904 5.49293L6.00014 5.49513Z" fill="#009046"/>
<path d="M6.00013 5.49508C5.80581 5.49508 5.64443 5.50057 5.48194 5.49508C5.07794 5.47971 4.76615 5.17662 4.74749 4.78897C4.72882 4.39583 5.00109 4.04223 5.40619 4.01478C5.87936 3.98293 6.35802 3.98513 6.83229 4.01368C7.21544 4.03674 7.491 4.34422 7.4943 4.73955C7.50527 6.08259 7.50637 7.42452 7.4943 8.76756C7.4899 9.19254 7.1342 9.5121 6.73678 9.50441C6.3207 9.49673 6.00562 9.16948 6.00342 8.72363C5.99793 7.74738 6.00122 6.77222 6.00122 5.79597C6.00122 5.71032 6.00122 5.62576 6.00122 5.49728L6.00013 5.49508Z" fill="#009046"/>
</svg>
