<svg width="20" height="42" viewBox="0 0 20 42" fill="none" xmlns="http://www.w3.org/2000/svg">
<path d="M19.0719 0.136719L10.9757 8.19166C10.7836 8.37984 10.6327 8.75619 10.6327 9.0224V18.9132C10.6327 19.1794 10.4177 19.3997 10.1524 19.3997H9.4434C9.17811 19.3997 8.96313 19.1794 8.96313 18.9132V9.0224C8.96313 8.75619 8.80303 8.37984 8.61549 8.19166L0.523916 0.136719H0.0390625V31.8746C0.0390625 32.1408 0.194582 32.5171 0.38212 32.7053L8.61092 40.9392C8.79845 41.1182 8.95855 41.0586 8.95855 40.797V28.1248C8.95855 27.854 9.17353 27.6428 9.43883 27.6428H10.1433C10.404 27.6428 10.6281 27.854 10.6281 28.1248V40.797C10.6281 41.0586 10.7791 41.1274 10.9712 40.9392L19.2091 32.7053C19.4012 32.5171 19.5613 32.1408 19.5613 31.8746V0.136719H19.0673" fill="#009046"/>
</svg>
