<svg width="20" height="20" viewBox="0 0 20 20" fill="none" xmlns="http://www.w3.org/2000/svg">
<path d="M17.8325 13.5317L15.0808 13.2175C14.7573 13.1795 14.4293 13.2154 14.1216 13.3223C13.8139 13.4293 13.5344 13.6046 13.3042 13.835L11.3108 15.8284C8.23544 14.2643 5.73574 11.7646 4.17165 8.6892L6.17582 6.68503C6.64165 6.2192 6.86915 5.5692 6.79332 4.90837L6.47915 2.17837C6.41773 1.64989 6.16411 1.16245 5.76657 0.808867C5.36904 0.455279 4.85535 0.260233 4.32332 0.260866H2.44915C1.22498 0.260866 0.20665 1.2792 0.282483 2.50337C0.85665 11.755 8.25582 19.1434 17.4967 19.7175C18.7208 19.7934 19.7391 18.775 19.7391 17.5509V15.6767C19.75 14.5825 18.9266 13.6617 17.8325 13.5317Z" fill="#E21E26"/>
</svg>
