<svg width="7" height="6" viewBox="0 0 7 6" fill="none" xmlns="http://www.w3.org/2000/svg">
<path d="M3.40824 0.162109C2.83191 0.162109 2.3928 0.212599 2.06804 0.322752C1.7387 0.423726 1.4734 0.575184 1.26299 0.772541C0.700377 1.22692 0.41223 1.99341 0.398508 3.07658C0.393933 3.92108 0.613477 4.61413 1.07089 5.16031C1.54202 5.71107 2.31963 5.99104 3.40369 6.00022C4.54722 5.99104 5.34767 5.66058 5.81422 5.04097C6.19845 4.59577 6.39515 3.93944 6.39972 3.08576C6.39972 2.22748 6.18015 1.53444 5.72731 0.99744C5.2699 0.446675 4.49233 0.171289 3.40369 0.162109M3.40369 4.73346C3.07893 4.73346 2.82278 4.60036 2.63067 4.32498C2.42941 4.05877 2.32418 3.6457 2.32418 3.08116C2.32418 2.51663 2.42941 2.0852 2.63067 1.81899C2.82736 1.5482 3.07893 1.4151 3.40369 1.4151C4.08523 1.4151 4.44657 1.96586 4.46944 3.08116C4.44657 4.19646 4.08523 4.74264 3.40369 4.73346Z" fill="white"/>
</svg>
