<svg width="6" height="6" viewBox="0 0 6 6" fill="none" xmlns="http://www.w3.org/2000/svg">
<path d="M5.16193 3.38507C4.90121 3.17394 4.60389 3.06379 4.26998 3.05002V3.03166C4.57644 2.94445 4.83259 2.80217 5.043 2.59564C5.24883 2.41205 5.34946 2.1229 5.34946 1.74654C5.36775 0.787295 4.71366 0.309961 3.3826 0.300781H0.253906V5.85433H3.63875C4.11446 5.85433 4.46208 5.8222 4.69079 5.74877L4.99727 5.61566L5.21682 5.41831C5.44095 5.20259 5.54615 4.85837 5.5553 4.42234C5.54615 3.95419 5.41351 3.60078 5.16651 3.38048M2.13846 1.32429H2.74222L3.14016 1.35642L3.3826 1.48034C3.48781 1.5859 3.53355 1.74195 3.52898 1.93472C3.52898 2.1183 3.47409 2.26518 3.35974 2.37992C3.24538 2.49007 3.03496 2.54515 2.74679 2.54515H2.13846V1.32429ZM3.49237 4.69772C3.34143 4.80788 3.09443 4.85837 2.74679 4.85837H2.13846V3.53194H2.74679C3.09443 3.53194 3.346 3.57325 3.49237 3.6834C3.63875 3.78896 3.70737 3.96796 3.70737 4.19745C3.70737 4.42693 3.64332 4.59216 3.49237 4.69772Z" fill="white"/>
</svg>
