<svg width="6" height="6" viewBox="0 0 6 6" fill="none" xmlns="http://www.w3.org/2000/svg">
<path d="M5.47607 3.99345C5.43948 3.70889 5.32972 3.51612 5.17877 3.39679C5.01868 3.28205 4.83114 3.22697 4.60701 3.22697V3.14895C4.89518 3.08928 5.12844 2.94241 5.30226 2.71752C5.48979 2.49721 5.57672 2.19429 5.57672 1.84088C5.57672 1.22586 5.39833 0.826556 5.0324 0.60166C4.68477 0.390534 4.17705 0.294153 3.5504 0.303332H0.289062V5.85687H2.17817V3.84199H2.76822C3.09755 3.8374 3.3034 3.87871 3.4086 3.9705C3.51838 4.0623 3.58241 4.29179 3.60528 4.61765L3.77452 5.85687H5.71851L5.48065 3.99804M3.51837 2.61654C3.37658 2.72669 3.18902 2.76342 2.96032 2.76342H2.18275V1.41863H2.92375C3.45434 1.41863 3.72876 1.62975 3.72876 2.08413C3.72876 2.34116 3.6556 2.51557 3.52295 2.61195" fill="white"/>
</svg>
